<?xml version="1.0" encoding="utf-8"?>
<!-- Generator: Adobe Illustrator 15.0.0, SVG Export Plug-In . SVG Version: 6.00 Build 0)  -->
<!DOCTYPE svg PUBLIC "-//W3C//DTD SVG 1.1//EN" "http://www.w3.org/Graphics/SVG/1.1/DTD/svg11.dtd">
<svg version="1.1" id="Layer_1" xmlns="http://www.w3.org/2000/svg" xmlns:xlink="http://www.w3.org/1999/xlink" x="0px" y="0px"
	 width="50.221px" height="40.812px" viewBox="0 0 50.221 40.812" enable-background="new 0 0 50.221 40.812" xml:space="preserve">
<path fill="#FFFFFF" d="M50.221,4.832c-1.848,0.819-3.834,1.373-5.918,1.622c2.127-1.275,3.762-3.294,4.531-5.7
	c-1.992,1.181-4.197,2.038-6.543,2.5C40.412,1.251,37.734,0,34.77,0C29.08,0,24.467,4.613,24.467,10.303
	c0,0.808,0.09,1.593,0.266,2.348C16.17,12.222,8.578,8.12,3.496,1.886c-0.887,1.522-1.395,3.292-1.395,5.18
	c0,3.575,1.819,6.728,4.583,8.577c-1.689-0.055-3.277-0.518-4.667-1.289c-0.001,0.043-0.001,0.086-0.001,0.129
	c0,4.992,3.551,9.156,8.265,10.104c-0.865,0.234-1.775,0.361-2.715,0.361c-0.664,0-1.309-0.064-1.938-0.186
	c1.312,4.094,5.116,7.072,9.625,7.156c-3.526,2.764-7.969,4.41-12.796,4.41c-0.832,0-1.651-0.049-2.458-0.145
	c4.56,2.924,9.976,4.629,15.794,4.629c18.952,0,29.315-15.699,29.315-29.314c0-0.447-0.01-0.891-0.029-1.333
	C47.092,8.712,48.84,6.897,50.221,4.832z"/>
</svg>
