<?xml version="1.0" encoding="utf-8"?>
<!-- Generator: Adobe Illustrator 15.0.0, SVG Export Plug-In . SVG Version: 6.00 Build 0)  -->
<!DOCTYPE svg PUBLIC "-//W3C//DTD SVG 1.1//EN" "http://www.w3.org/Graphics/SVG/1.1/DTD/svg11.dtd">
<svg version="1.1" id="Layer_1" xmlns="http://www.w3.org/2000/svg" xmlns:xlink="http://www.w3.org/1999/xlink" x="0px" y="0px"
	 width="46.375px" height="34.75px" viewBox="0 0 46.375 34.75" enable-background="new 0 0 46.375 34.75" xml:space="preserve">
<path fill="#FFFFFF" d="M38.375,0H8C3.601,0,0,3.6,0,8v18.75c0,4.398,3.601,8,8,8h30.375c4.4,0,8-3.602,8-8V8
	C46.375,3.6,42.775,0,38.375,0z M8,3.5h30.375c2.202,0,4.032,1.592,4.418,3.685L24.139,20.441c-0.521,0.367-1.237,0.348-1.739-0.051
	L3.575,7.261C3.93,5.132,5.771,3.5,8,3.5z M38.375,31.25H8c-2.481,0-4.5-2.02-4.5-4.5V11.476L20.272,23.17
	c0.884,0.684,1.956,1.029,3.031,1.027c1,0,2.002-0.297,2.855-0.896L42.875,11.42v15.33C42.875,29.23,40.856,31.25,38.375,31.25z"/>
</svg>
